<svg version="1.1" id="Layer_1" xmlns:x="ns_extend;" xmlns:i="ns_ai;" xmlns:graph="ns_graphs;" xmlns="http://www.w3.org/2000/svg" xmlns:xlink="http://www.w3.org/1999/xlink" x="0px" y="0px" viewBox="0 0 261.5 99.1" style="enable-background:new 0 0 261.5 99.1;" xml:space="preserve">
 <style type="text/css">
  .st0{fill:#FFFFFF;}
 </style>
 <metadata>
  <sfw xmlns="ns_sfw;">
   <slices>
   </slices>
   <sliceSourceBounds bottomLeftOrigin="true" height="99.1" width="261.5" x="276.7" y="298.9">
   </sliceSourceBounds>
  </sfw>
 </metadata>
 <g>
  <g>
   <g id="UserWeb-gray">
    <g id="Group_112" transform="translate(91.999 102)">
     <path id="Path_76" class="st0" d="M77.1-102l-2.9,13.7h22.6l2.9-13.7H77.1z">
     </path>
     <g id="Group_52" transform="translate(0 0.001)">
      <g>
       <g id="Group_51">
        <path id="Path_77" class="st0" d="M132.8-69.1c8.6,0,12.7,2.9,13.2,8h23.5c0.8-17-13-23-33.8-23c-21.6,0-37.9,7.8-44.7,23.5
								l4.5-21.1H72.7l-4.2,19.6c-1-13.6-11.3-21.1-28-21.1c-9.2,0-17.9,3.3-24,9.2h-0.2l1.6-7.7H-4l-8.8,41.4h-50.3l2.4-13h44.9
								l3.4-15.8h-44.9l2.4-12.7h50.9l3.5-16.4h-76.3L-92-23.8h75.7l-4.4,20.9H1.9l5.6-26.2h0.2c2.9,4.3,9.9,7.6,20,7.6
								c17.2,0,30.4-8.8,36.8-21.1l-4,18.7H83l4.5-20.8c0.1,15.8,12.7,23.2,34.8,23.2c25,0,38.2-9,45.2-25h-24
								c-3.2,6.8-9.4,10.1-17.6,10.1c-10.9,0-15.8-5.9-13.6-16.4S122.2-69.1,132.8-69.1 M44.6-52.7c-2,9.6-8.8,14.7-19.1,14.7
								c-10.6,0-14.9-5.8-13-14.7s8.7-14.7,19.3-14.7C42.1-67.4,46.7-62.3,44.6-52.7">
        </path>
       </g>
      </g>
     </g>
    </g>
   </g>
  </g>
 </g>
</svg>