<svg version="1.1" id="Layer_1" xmlns:x="ns_extend;" xmlns:i="ns_ai;" xmlns:graph="ns_graphs;" xmlns="http://www.w3.org/2000/svg" xmlns:xlink="http://www.w3.org/1999/xlink" x="0px" y="0px" viewBox="0 0 427.6 100" style="enable-background:new 0 0 427.6 100;" xml:space="preserve">
 <style type="text/css">
  .st0{fill:#000000;}
 </style>
 <metadata>
  <sfw xmlns="ns_sfw;">
   <slices>
   </slices>
   <sliceSourceBounds bottomLeftOrigin="true" height="100" width="427.6" x="-177.3" y="-210.3">
   </sliceSourceBounds>
  </sfw>
 </metadata>
 <g>
  <polygon class="st0" points="27.2,77.7 0,77.7 21.8,0 77.5,0 72.2,18.4 43.7,18.4 40.1,31.7 68.5,31.7 63.7,48.6 35.3,48.6 	">
  </polygon>
  <path class="st0" d="M90.1,77.7H63.2l15.9-56.8H106L90.1,77.7z M107.5,15.5H80.6L85,0h26.9L107.5,15.5z">
  </path>
  <path class="st0" d="M159.8,77.7h-26.3l1.9-6.4c-5.3,4.5-10.7,7.7-19.4,7.7c-8.8,0-14.3-4.2-14.3-13c0-9.8,3.9-24.4,9.6-34.6
		c4.2-7.6,11.7-11.6,20.5-11.6c7.6,0,13.2,3.3,15.4,7.5L154.7,0h26.9L159.8,77.7z M139.6,37.8c-2.4,0-4.8,0.7-6.1,4.1
		c-2,4.8-3.7,9.5-3.7,14.2c0,2.2,1.6,4.1,4.2,4.1c2.1,0,3.4-0.6,4.6-1.3l5.4-18.6C142.9,38.7,141.2,37.8,139.6,37.8">
  </path>
  <path class="st0" d="M235.6,52.9h-37.1c-0.7,3-1.5,5.1-1.5,7.5c0,1.1,0.2,4.1,4,4.1c3.7,0,5.4-1.5,7-7h26.3
		c-3.3,16.1-22.5,21.7-34.3,21.7c-15.9,0-28.3-2.3-28.3-17.6c0-8.4,4.3-22.4,9.9-29.8c6.8-8.9,18.5-12.2,29.4-12.2
		c16.7,0,27.5,3.4,27.5,17.6C238.5,40.6,237.1,48.2,235.6,52.9 M208.8,33.8c-3.3,0-5.6,2.3-7.1,8h11c0.3-1.1,0.7-2.9,0.7-4
		C213.5,34.8,211.6,33.8,208.8,33.8">
  </path>
  <polygon class="st0" points="262.6,77.7 235.8,77.7 257.5,0 284.4,0 	">
  </polygon>
  <path class="st0" d="M298.1,77.7h-26.9l15.9-56.8h26.9L298.1,77.7z M315.5,15.5h-26.9L293,0h26.9L315.5,15.5z">
  </path>
  <path class="st0" d="M363.8,20.9l2.3,12.8h-20.6l-6,21.6c-0.5,1.7-0.9,3.7-0.9,5.1c0,2.5,1,3.3,4.7,3.3h5.7l-4,14h-24
		c-7.9,0-10.9-3.9-10.9-9.7c0-2.4,0.3-5,1.2-7.9l14.6-51.8h26.9l-3.5,12.6H363.8z">
  </path>
  <path class="st0" d="M406.8,66.3c-4,0-7.3,3.3-7.3,7.3c0,4,3.3,7.3,7.3,7.3c4,0,7.3-3.3,7.3-7.3C414.1,69.6,410.8,66.3,406.8,66.3
		 M406.8,79.6c-3.3,0-6-2.7-6-6s2.7-6,6-6c3.3,0,6,2.7,6,6S410.1,79.6,406.8,79.6">
  </path>
  <path class="st0" d="M409.7,72.1c0-1.5-0.8-2.3-2.7-2.3h-2.8v7.5h1.3v-3.1h1l1.9,3.1h1.5l-2-3.2C408.9,74,409.7,73.4,409.7,72.1
		 M405.5,73.1V71h1c0.8,0,1.8,0,1.8,1c0,1-0.9,1.1-1.8,1.1H405.5z">
  </path>
  <path class="st0" d="M400.1,20.9l-14.6,31.5l0.4-31.5h-27.2l5.2,56.8c-0.7,3.3-1.8,5.2-3.8,6.1c-2.3,1-7.4,0.8-9.3,0.7l-0.3,0
		l-4.3,15.4l18.3,0c10.8,0,16.1-5.4,23.9-17.5l39.2-61.5H400.1z">
  </path>
 </g>
</svg>