<svg version="1.1" id="Layer_1" xmlns:x="ns_extend;" xmlns:i="ns_ai;" xmlns:graph="ns_graphs;" xmlns="http://www.w3.org/2000/svg" xmlns:xlink="http://www.w3.org/1999/xlink" x="0px" y="0px" viewBox="0 0 738 144" style="enable-background:new 0 0 738 144;" xml:space="preserve">
 <style type="text/css">
  .st0{fill:#FFFFFF;}
	.st1{fill:none;}
	.st2{fill:#00A5BD;}
 </style>
 <metadata>
  <sfw xmlns="ns_sfw;">
   <slices>
   </slices>
   <sliceSourceBounds bottomLeftOrigin="true" height="144" width="736.1" x="0" y="0">
   </sliceSourceBounds>
  </sfw>
 </metadata>
 <g>
  <path class="st0" d="M194.8,106.3V49.8h-24.1V37.7h60.3v12.1H207v56.5H194.8z">
  </path>
  <path class="st0" d="M312.4,37.7h12l-16.9,68.6h-11L281,58.7l-15.7,47.6h-10.6l-17-68.6h12.1L261,85.4l15.7-47.7h8.8l15.6,47.8
		L312.4,37.7z">
  </path>
  <path class="st0" d="M361.4,107.1c-19.4,0-35.1-15.8-35-35.2s15.8-35.1,35.2-35c19.3,0,35,15.7,35,35
		C396.6,91.3,380.9,107.1,361.4,107.1z M338.9,72c0,12.5,10.1,22.6,22.6,22.6c12.5,0,22.6-10.1,22.6-22.6S374,49.4,361.5,49.4
		c0,0,0,0,0,0C349,49.4,338.9,59.5,338.9,72z">
  </path>
  <path class="st0" d="M453.9,107.1c-15.2,0-24.8-7.4-27.8-21.6h13.5c2.5,6.7,6.8,9.5,14.8,9.6c8.3,0,12.6-3.8,12.6-8.3
		c0-3.3-1.4-5.9-8.1-7.2l-12.5-2.6c-12.7-2.6-18.2-8.5-18.2-18.4c0-10.7,9.6-21.6,25.6-21.6c13.5,0,23.5,8,25.6,21.8h-12.6
		c-2-6.7-6.5-9.8-13.5-9.8c-7.9,0-11.9,4.2-11.8,8.7c0.1,4.1,2.5,6.2,8.9,7.6l12.8,2.6c12.4,2.5,17.5,7.8,17.5,18
		C480.6,98.3,469.6,107.1,453.9,107.1z">
  </path>
  <path class="st0" d="M490.7,106.3V37.7h12.1v68.6H490.7z">
  </path>
  <path class="st0" d="M547.4,107.1c-19.4,0.1-35.2-15.6-35.2-35c-0.1-19.4,15.6-35.2,35-35.2l0,0c14.2,0,26.6,8.4,32.3,21.8h-14.2
		c-4.1-5.9-10.8-9.4-18-9.3c-12.5,0-22.6,10.2-22.6,22.7s10.2,22.6,22.7,22.6c9,0,17.1-5.3,20.7-13.6h-19.3V69h30.9v37.3h-10.3V97
		C563.6,104.2,555.7,107.1,547.4,107.1z">
  </path>
  <path class="st0" d="M623.7,106.3L603,61.1v45.1h-12V37.7h13.4L627,86.8l22.5-49.1h13.1v68.6h-12.1V61.1l-20.7,45.1H623.7z">
  </path>
  <path class="st0" d="M681.7,106.3h-13.3l29-68.6h9.2l29.5,68.6h-13.3l-5-11.9h-31.2L681.7,106.3z M691.4,82.5h21.5L702,56.3
		L691.4,82.5z">
  </path>
  <path class="st1" d="M73.3,82.5c-0.1-0.3-0.2-0.6-0.2-1C73.1,81.9,73.2,82.2,73.3,82.5z">
  </path>
  <path class="st1" d="M82.7,95.1c-0.3-0.2-0.7-0.4-1-0.6C82,94.7,82.3,94.9,82.7,95.1z">
  </path>
  <path class="st1" d="M72.9,80.6c-0.1-0.4-0.1-0.7-0.2-1.1C72.8,79.9,72.9,80.2,72.9,80.6z">
  </path>
  <path class="st1" d="M73.9,84.5c-0.1-0.3-0.3-0.6-0.4-1C73.7,83.9,73.8,84.2,73.9,84.5z">
  </path>
  <path class="st1" d="M86.2,96.7c-0.3-0.1-0.7-0.2-1-0.4C85.5,96.5,85.9,96.6,86.2,96.7z">
  </path>
  <path class="st1" d="M84.3,95.9c-0.3-0.2-0.6-0.3-0.9-0.5C83.7,95.7,84,95.8,84.3,95.9z">
  </path>
  <path class="st1" d="M78.1,91.3c-0.3-0.3-0.5-0.6-0.8-0.9C77.6,90.8,77.9,91.1,78.1,91.3z">
  </path>
  <path class="st1" d="M75.7,88.2c-0.2-0.3-0.4-0.6-0.6-0.9C75.3,87.5,75.5,87.9,75.7,88.2z">
  </path>
  <path class="st1" d="M74.7,86.4c-0.2-0.3-0.3-0.6-0.5-0.9C74.4,85.7,74.6,86.1,74.7,86.4z">
  </path>
  <path class="st1" d="M81.1,94c-0.3-0.2-0.6-0.5-1-0.7C80.4,93.5,80.7,93.8,81.1,94z">
  </path>
  <path class="st1" d="M79.5,92.7c-0.3-0.3-0.6-0.5-0.9-0.8C78.9,92.2,79.2,92.5,79.5,92.7z">
  </path>
  <path class="st1" d="M72.7,77.5c0,0.4,0,0.8,0.1,1.1C72.7,78.2,72.7,77.8,72.7,77.5C72.7,77.4,72.7,77.4,72.7,77.5z">
  </path>
  <path class="st1" d="M81,77.4c0-0.4,0-0.8,0.1-1.2C81,76.6,81,77,81,77.4c0,6.7,5.4,12.1,12.1,12.1c2,0,4-0.5,5.7-1.4
		C97,89,95.1,89.5,93,89.5C86.4,89.5,81,84.1,81,77.4z">
  </path>
  <path class="st1" d="M81.1,76c0-0.3,0.1-0.6,0.1-1C81.2,75.4,81.1,75.7,81.1,76z">
  </path>
  <path class="st1" d="M76.8,89.8c-0.2-0.3-0.5-0.6-0.7-0.9C76.4,89.2,76.6,89.5,76.8,89.8z">
  </path>
  <path class="st1" d="M93.1,98c-1.4,0-2.8-0.2-4.1-0.4C90.3,97.8,91.7,98,93.1,98z">
  </path>
  <path class="st1" d="M88,97.3c-0.3-0.1-0.6-0.2-1-0.2C87.4,97.2,87.7,97.2,88,97.3z">
  </path>
  <path class="st1" d="M105.8,64.6C105.8,64.6,105.8,64.6,105.8,64.6l7,0l7.7-7.7h0l-7.7,7.7H105.8z">
  </path>
  <path class="st2" d="M105.1,77.5c0-6.7-5.4-12.1-12.1-12.1c-5.8,0-10.7,4.1-11.8,9.6c-0.1,0.3-0.1,0.6-0.1,1c0,0.1,0,0.1,0,0.2
		c0,0.4-0.1,0.8-0.1,1.2c0,6.7,5.4,12.1,12.1,12.1c2,0,4-0.5,5.7-1.4C102.5,86.1,105.1,82.1,105.1,77.5z">
  </path>
  <path class="st2" d="M135,63L81,9l-9-9l-9,9L9,63l-9,9l9,9l54,54l9,9l9-9l54-54l9-9L135,63z M69.6,97.6L69.6,97.6l-35.8,0v-8.5
		l23-22.9c2.5-2.5,3.3-4.6,3.3-7c0.1-4.4-3.2-8.2-7.6-8.7c-4.8-0.6-9.1,2.8-9.7,7.5H34c0.5-9.3,8.3-16.6,17.6-16.5
		c9.7,0.1,17.4,8,17.3,17.6c0,4.8-1.9,8.6-6,12.7L45.8,88.9h23.8V97.6z M120.5,56.9l-7.7,7.7h-7c5.9,3.4,7.9,8.6,7.9,13.2
		c-0.1,11.2-9.3,20.3-20.5,20.2c-1.4,0-2.8-0.2-4.1-0.4c-0.3-0.1-0.7-0.2-1-0.3c-0.3-0.1-0.6-0.2-1-0.2c-0.3-0.1-0.6-0.2-0.9-0.3
		c-0.3-0.1-0.7-0.2-1-0.4c-0.3-0.1-0.6-0.3-0.8-0.4c-0.3-0.2-0.6-0.3-0.9-0.5c-0.2-0.1-0.5-0.3-0.7-0.4c-0.3-0.2-0.7-0.4-1-0.6
		c-0.2-0.1-0.4-0.3-0.6-0.5c-0.3-0.2-0.6-0.5-1-0.7c-0.2-0.2-0.4-0.4-0.6-0.5c-0.3-0.3-0.6-0.5-0.9-0.8c-0.2-0.2-0.4-0.4-0.5-0.6
		c-0.3-0.3-0.5-0.6-0.8-0.9c-0.2-0.2-0.3-0.5-0.5-0.7c-0.2-0.3-0.5-0.6-0.7-0.9c-0.2-0.2-0.3-0.5-0.5-0.7c-0.2-0.3-0.4-0.6-0.6-0.9
		c-0.1-0.3-0.3-0.6-0.4-0.9c-0.2-0.3-0.3-0.6-0.5-0.9c-0.1-0.3-0.2-0.6-0.3-0.9c-0.1-0.3-0.3-0.6-0.4-1c-0.1-0.3-0.2-0.7-0.3-1
		c-0.1-0.3-0.2-0.6-0.2-1c-0.1-0.3-0.1-0.7-0.2-1c-0.1-0.4-0.1-0.7-0.2-1.1c0-0.3,0-0.6,0-1c0-0.4-0.1-0.8-0.1-1.1c0,0,0,0,0,0
		c0,0,0,0,0,0c0-11.6,9.3-20.6,22.5-20.6L120.5,56.9L120.5,56.9L120.5,56.9z">
  </path>
  <polygon class="st2" points="69.6,97.6 69.6,97.6 33.8,97.6 	">
  </polygon>
  <path class="st2" d="M87,97.1c-0.3-0.1-0.6-0.2-0.9-0.3C86.5,96.8,86.8,97,87,97.1z">
  </path>
  <path class="st2" d="M72.8,79.5c0-0.3,0-0.6,0-1C72.7,78.9,72.7,79.2,72.8,79.5z">
  </path>
  <path class="st2" d="M73.1,81.6c-0.1-0.3-0.1-0.7-0.2-1C73,80.9,73,81.3,73.1,81.6z">
  </path>
  <path class="st2" d="M85.2,96.4c-0.3-0.1-0.6-0.3-0.8-0.4C84.6,96.1,84.9,96.2,85.2,96.4z">
  </path>
  <path class="st2" d="M105.8,64.6L105.8,64.6C105.8,64.6,105.8,64.6,105.8,64.6L105.8,64.6z">
  </path>
  <path class="st2" d="M89,97.6c-0.3-0.1-0.7-0.2-1-0.3C88.3,97.4,88.7,97.5,89,97.6z">
  </path>
  <path class="st2" d="M95.1,56.9c-13.1,0-22.5,9-22.5,20.6c0,0,0,0,0,0C72.7,65.9,82,56.9,95.1,56.9l25.3,0l0,0H95.1z">
  </path>
  <path class="st2" d="M81.2,75c1.1-5.5,6-9.6,11.8-9.6c6.7,0,12.1,5.4,12.1,12.1c0,4.6-2.6,8.6-6.4,10.7c3.9-2,6.6-6,6.6-10.7
		c-0.1-6.7-5.6-12.1-12.3-12.1C87.2,65.4,82.3,69.5,81.2,75z">
  </path>
  <path class="st2" d="M81,76.2c0-0.1,0-0.1,0-0.2C81.1,76.1,81,76.1,81,76.2z">
  </path>
  <path class="st2" d="M74.3,85.4c-0.1-0.3-0.2-0.6-0.3-0.9C74,84.8,74.1,85.1,74.3,85.4z">
  </path>
  <path class="st2" d="M78.7,91.9c-0.2-0.2-0.4-0.4-0.5-0.6C78.3,91.5,78.5,91.8,78.7,91.9z">
  </path>
  <path class="st2" d="M80.1,93.3c-0.2-0.2-0.4-0.4-0.6-0.5C79.7,92.9,79.9,93.1,80.1,93.3z">
  </path>
  <path class="st2" d="M75.1,87.2c-0.1-0.3-0.3-0.6-0.4-0.9C74.9,86.6,75,86.9,75.1,87.2z">
  </path>
  <path class="st2" d="M83.4,95.5c-0.2-0.1-0.5-0.3-0.7-0.4C82.9,95.2,83.1,95.4,83.4,95.5z">
  </path>
  <path class="st2" d="M76.2,88.9c-0.2-0.2-0.3-0.5-0.5-0.7C75.9,88.4,76,88.7,76.2,88.9z">
  </path>
  <path class="st2" d="M77.3,90.5c-0.2-0.2-0.3-0.5-0.5-0.7C77,90,77.2,90.3,77.3,90.5z">
  </path>
  <path class="st2" d="M73.6,83.5c-0.1-0.3-0.2-0.7-0.3-1C73.4,82.9,73.5,83.2,73.6,83.5z">
  </path>
  <path class="st2" d="M81.7,94.5c-0.2-0.1-0.4-0.3-0.6-0.5C81.3,94.1,81.5,94.3,81.7,94.5z">
  </path>
 </g>
</svg>